<svg xmlns:mydata="http://www.w3.org/2000/svg" mydata:contrastcolor="ffffff" mydata:template="Contrast" mydata:presentation="2.5" mydata:layouttype="undefined" mydata:specialfontid="undefined" mydata:id1="377" mydata:id2="092" mydata:companyname="osama" mydata:companytagline="" version="1.1" xmlns="http://www.w3.org/2000/svg" xmlns:xlink="http://www.w3.org/1999/xlink" viewBox="0 0 550 470" style="background-color: rgb(60, 30, 62); background-image: radial-gradient(circle closest-side at center center, rgba(209, 7, 84, 0.65) 0%, rgba(209, 7, 84, 0.12) 70%, rgb(60, 30, 62) 100%);"><defs style="animation-play-state: running;"><filter id="electric-filter" x="-50%" y="-50%" width="200%" height="200%" style="animation-play-state: running;">
                <feFlood flood-color="#ffffff" result="flood-white" style="animation-play-state: running;"></feFlood>
                <feFlood flood-color="#d10754" result="flood-accent" style="animation-play-state: running;"></feFlood>
                <feComposite operator="out" in="flood-accent" in2="SourceAlpha" result="comp" style="animation-play-state: running;"></feComposite>
                <feGaussianBlur in="comp" result="comp" stdDeviation="0.4" style="animation-play-state: running;"></feGaussianBlur>
                <feComposite operator="in" in="comp" in2="SourceAlpha" result="comp" style="animation-play-state: running;"></feComposite>
                <feComposite operator="in" in="flood-white" in2="SourceAlpha" result="comp2" style="animation-play-state: running;"></feComposite>
                <feGaussianBlur in="comp2" result="comp2" stdDeviation="0.4" style="animation-play-state: running;"></feGaussianBlur>
                <feBlend in="comp" in2="comp2" result="output" mode="screen" style="animation-play-state: running;"></feBlend>
            </filter>
            <filter id="electric-electric" x="-50%" y="-50%" width="200%" height="200%" style="animation-play-state: running;">
                <feTurbulence baseFrequency="0.08" type="fractalNoise" numOctaves="1" seed="1" result="noise" style="animation-play-state: running;"></feTurbulence>
                <feColorMatrix in="noise" result="noise" type="hueRotate" values="90" style="animation-play-state: running;">
                    <animate attributeType="XML" attributeName="values" values="0;180;360" dur="3s" repeatCount="indefinite" style="animation-play-state: running;"></animate>
                </feColorMatrix>
                <feDisplacementMap in="SourceGraphic" xChannelSelector="R" in2="noise" scale="13" result="lines" style="animation-play-state: running;"></feDisplacementMap>
                <feGaussianBlur in="lines" result="output" stdDeviation="10" style="animation-play-state: running;"></feGaussianBlur>
                <feBlend in="lines" in2="output" result="output" mode="screen" style="animation-play-state: running;"></feBlend>
            </filter></defs><g fill="none" fill-rule="none" stroke="none" stroke-width="1" stroke-linecap="butt" stroke-linejoin="miter" stroke-miterlimit="10" stroke-dasharray="" stroke-dashoffset="0" font-family="none" font-weight="none" font-size="none" text-anchor="none" style="mix-blend-mode: normal; animation-play-state: running;"><g data-paper-data="{&quot;isGlobalGroup&quot;:true,&quot;bounds&quot;:{&quot;x&quot;:107.62771467291276,&quot;y&quot;:115.00000000000003,&quot;width&quot;:334.7445706541745,&quot;height&quot;:239.99999999999997}}" style="animation-play-state: running;"><g data-paper-data="{&quot;isPrimaryText&quot;:true}" fill="#ffc600" fill-rule="nonzero" style="animation-play-state: running;"><path d="M156.32115,316.79298c0,3.2827 -2.6444,5.9271 -5.9271,5.9271c-3.2827,0 -5.9271,-2.6444 -5.9271,-5.9271c0,-3.2827 2.6444,-5.9271 5.9271,-5.9271c3.2827,0 5.9271,2.6444 5.9271,5.9271zM130.05952,331.56514l6.83897,-6.83897l-6.83897,-6.93015l-6.93015,6.93015zM141.27543,287.70458c-19.78741,0 -33.64771,16.41352 -33.64771,33.83008c0,8.5715 3.37389,16.59589 9.02743,22.70537l7.20371,-7.2949c-3.92101,-4.28575 -6.01829,-9.84811 -6.01829,-15.50166c0,-13.13081 10.66879,-23.52604 23.43486,-23.52604c5.9271,0 11.39828,2.18847 15.68403,6.01829l7.20371,-7.2949c-6.29185,-5.83592 -14.58979,-8.93625 -22.88774,-8.93625zM165.98689,298.46455l-7.20371,7.20371c4.01219,4.6505 5.9271,10.21286 5.9271,15.68403c0,5.74473 -2.09728,11.30709 -5.9271,15.59284l7.20371,7.2949c5.9271,-6.38303 8.93625,-14.58979 8.93625,-22.88774c0,-8.20676 -2.91796,-16.41352 -8.93625,-22.88774zM141.27543,344.78714c-5.83592,0 -11.39828,-2.27966 -15.59284,-6.01829l-7.20371,7.2949c6.01829,5.65354 14.13386,8.93625 22.79655,8.93625c8.5715,0 16.77826,-3.2827 22.88774,-8.93625l-7.20371,-7.2949c-4.28575,3.82982 -9.84811,6.01829 -15.68403,6.01829z" data-paper-data="{&quot;glyphName&quot;:&quot;O&quot;,&quot;glyphIndex&quot;:0,&quot;firstGlyphOfWord&quot;:true,&quot;word&quot;:1}" style="animation-play-state: running;"></path><path d="M208.02373,319.25501l-14.49861,8.48032l-2.6444,-4.55931l14.58979,-8.48032zM223.61657,313.14553l-14.31623,8.29794l2.6444,4.55931l14.31623,-8.29794zM198.54036,315.69874c-1.00305,-1.91491 -1.55017,-3.92101 -1.55017,-5.9271c0,-6.38303 5.19761,-11.85421 11.85421,-11.85421c4.19457,0 8.11557,2.18847 10.21286,5.9271l8.84506,-5.10643c-4.01219,-6.93015 -11.30709,-11.03353 -19.05792,-11.03353c-12.49251,0 -22.06706,10.21286 -22.06706,21.97588c0,3.82982 1.00305,7.65964 2.91796,11.12472zM230.91147,331.38277c0,-4.10338 -1.09423,-8.02439 -3.10033,-11.67183l-8.93625,5.01524c1.18542,2.09728 1.82372,4.37694 1.82372,6.65659c0,7.2949 -6.01829,13.40437 -13.40437,13.40437c-4.92406,0 -9.20981,-2.6444 -11.58065,-6.65659l-8.75388,5.10643c4.10338,7.20371 11.85421,11.76302 20.33452,11.76302c13.03963,0 23.61723,-10.66879 23.61723,-23.61723z" data-paper-data="{&quot;glyphName&quot;:&quot;S&quot;,&quot;glyphIndex&quot;:1,&quot;word&quot;:1}" style="animation-play-state: running;"></path><path d="M274.77203,336.4892c0,3.2827 -2.6444,5.9271 -5.9271,5.9271c-3.2827,0 -5.9271,-2.6444 -5.9271,-5.9271c0,-3.2827 2.6444,-5.9271 5.9271,-5.9271c3.2827,0 5.9271,2.6444 5.9271,5.9271zM276.77813,290.44016l-5.47117,14.77217l17.78131,48.05513h11.12472zM257.1731,306.12419l-17.59894,47.14327h11.12472l17.41657,-47.14327zM263.28257,289.43712l5.56236,14.95454l5.56236,-14.95454z" data-paper-data="{&quot;glyphName&quot;:&quot;A&quot;,&quot;glyphIndex&quot;:2,&quot;word&quot;:1}" style="animation-play-state: running;"></path><path d="M321.45937,353.26746v-55.98833l-10.30404,-8.11557v64.1039zM360.57826,353.26746h10.21286v-48.69344l-10.21286,8.20676zM370.79111,289.16356l-29.17959,23.25248v12.21895l29.17959,-23.34367zM325.01564,311.23062c0,3.2827 2.73559,5.9271 6.01829,5.9271c3.2827,0 5.9271,-2.6444 5.9271,-5.9271c0,-3.2827 -2.6444,-6.01829 -5.9271,-6.01829c-3.2827,0 -6.01829,2.73559 -6.01829,6.01829z" data-paper-data="{&quot;glyphName&quot;:&quot;M&quot;,&quot;glyphIndex&quot;:3,&quot;word&quot;:1}" style="animation-play-state: running;"></path><path d="M416.93133,336.4892c0,3.2827 -2.6444,5.9271 -5.9271,5.9271c-3.2827,0 -5.9271,-2.6444 -5.9271,-5.9271c0,-3.2827 2.6444,-5.9271 5.9271,-5.9271c3.2827,0 5.9271,2.6444 5.9271,5.9271zM418.93743,290.44016l-5.47117,14.77217l17.78131,48.05513h11.12472zM399.3324,306.12419l-17.59894,47.14327h11.12472l17.41657,-47.14327zM405.44187,289.43712l5.56236,14.95454l5.56236,-14.95454z" data-paper-data="{&quot;glyphName&quot;:&quot;A&quot;,&quot;glyphIndex&quot;:4,&quot;lastGlyphOfWord&quot;:true,&quot;word&quot;:1}" style="animation-play-state: running;"></path></g><g data-paper-data="{&quot;isIcon&quot;:&quot;true&quot;,&quot;iconType&quot;:&quot;icon&quot;,&quot;rawIconId&quot;:&quot;50966&quot;,&quot;selectedEffects&quot;:{&quot;container&quot;:&quot;&quot;,&quot;transformation&quot;:&quot;&quot;,&quot;pattern&quot;:&quot;&quot;},&quot;isDetailed&quot;:false,&quot;fillRule&quot;:&quot;evenodd&quot;,&quot;bounds&quot;:{&quot;x&quot;:206.43895918044814,&quot;y&quot;:115.00000000000003,&quot;width&quot;:137.12208163910373,&quot;height&quot;:141.40008418612084},&quot;iconStyle&quot;:&quot;standalone&quot;,&quot;suitableAsStandaloneIcon&quot;:true}" fill-rule="evenodd" style="animation-play-state: running;"><g data-paper-data="{&quot;isPathIcon&quot;:true}" style="animation-play-state: running;"><path d="M321.92203,152.98402c-1.927,17.51101 -16.76901,31.12902 -34.79002,31.12902c-19.33101,0 -35.00002,-15.67001 -35.00002,-34.99902c0,-16.62701 11.59501,-30.54702 27.14202,-34.11402l-0.076,0.015c-22.34701,0.706 -40.24702,19.04601 -40.24702,41.56502c0,22.96501 18.61601,41.58102 41.58202,41.58102c22.96801,0 41.58602,-18.61601 41.58602,-41.58102c0,-1.28 -0.059,-2.546 -0.172,-3.796z" fill="#ffc600" style="animation-play-state: running;"></path><path d="M249.84799,122.824l-0.003,0.001l0.002,-0.001z" fill="#ffc600" style="animation-play-state: running;"></path><path d="M220.26997,169.82903c0.002,-20.71201 12.07901,-39.41802 29.57502,-47.00403c-10.33601,7.586 -16.89801,21.55301 -16.89801,36.16402c0,26.37602 21.38301,47.40403 47.76003,47.40403c26.37902,0 47.76203,-21.35001 47.76203,-47.72603c0,-6.249 -1.199,-12.19901 -3.382,-17.66801c11.45901,12.25501 18.47401,28.72402 18.47401,46.82503c0,37.86502 -30.69602,68.57604 -68.56104,68.57604c-37.86502,0 -68.56104,-30.66702 -68.56104,-68.53004c0,-11.52701 2.844,-22.32601 7.868,-31.85902l0.004,0.086c-0.249,1.851 -0.378,3.781 -0.378,5.7c0,10.50801 3.847,21.70201 10.20701,27.77202c-2.496,-6.068 -3.87,-12.75301 -3.87,-19.74001zM325.08703,140.99902c-0.009,-0.009 -0.017,-0.018 -0.025,-0.027l0.007,-0.016z" fill="#59315f" style="animation-play-state: running;"></path><path d="M316.95202,142.54502c-0.001,0.003 -0.002,0.006 -0.003,0.009c-0.001,-0.003 -0.001,-0.006 -0.002,-0.009z" fill="#ffc600" style="animation-play-state: running;"></path><path d="M263.36099,161.84403c4.673,9.58001 14.50601,16.19001 25.88302,16.19001c15.89601,0 28.78202,-12.33801 28.78202,-28.23102c0,-2.71 -0.374,-4.22 -1.077,-7.249c-3.987,13.65001 -17.69801,25.56002 -33.99502,25.56002c-7.254,0 -13.99401,-2.503 -19.59301,-6.27z" fill="#ffc600" style="animation-play-state: running;"></path><path d="M263.36099,161.84403c-0.058,-0.12 -0.116,-0.24 -0.173,-0.361l0.108,0.317c0.021,0.015 0.043,0.03 0.065,0.044z" fill="#ffc600" style="animation-play-state: running;"></path></g></g></g></g><g fill-rule="none" font-family="none" font-weight="none" font-size="none" text-anchor="none" style="mix-blend-mode: normal; animation-play-state: running;" filter="url(#electric-electric)" fill="none" stroke="#d10754" stroke-width="2.5"><g data-paper-data="{&quot;isGlobalGroup&quot;:true,&quot;bounds&quot;:{&quot;x&quot;:107.62771467291276,&quot;y&quot;:115.00000000000003,&quot;width&quot;:334.7445706541745,&quot;height&quot;:239.99999999999997}}" style="animation-play-state: running;"><g data-paper-data="{&quot;isPrimaryText&quot;:true}" fill-rule="nonzero" style="animation-play-state: running;"><path d="M156.32115,316.79298c0,3.2827 -2.6444,5.9271 -5.9271,5.9271c-3.2827,0 -5.9271,-2.6444 -5.9271,-5.9271c0,-3.2827 2.6444,-5.9271 5.9271,-5.9271c3.2827,0 5.9271,2.6444 5.9271,5.9271zM130.05952,331.56514l6.83897,-6.83897l-6.83897,-6.93015l-6.93015,6.93015zM141.27543,287.70458c-19.78741,0 -33.64771,16.41352 -33.64771,33.83008c0,8.5715 3.37389,16.59589 9.02743,22.70537l7.20371,-7.2949c-3.92101,-4.28575 -6.01829,-9.84811 -6.01829,-15.50166c0,-13.13081 10.66879,-23.52604 23.43486,-23.52604c5.9271,0 11.39828,2.18847 15.68403,6.01829l7.20371,-7.2949c-6.29185,-5.83592 -14.58979,-8.93625 -22.88774,-8.93625zM165.98689,298.46455l-7.20371,7.20371c4.01219,4.6505 5.9271,10.21286 5.9271,15.68403c0,5.74473 -2.09728,11.30709 -5.9271,15.59284l7.20371,7.2949c5.9271,-6.38303 8.93625,-14.58979 8.93625,-22.88774c0,-8.20676 -2.91796,-16.41352 -8.93625,-22.88774zM141.27543,344.78714c-5.83592,0 -11.39828,-2.27966 -15.59284,-6.01829l-7.20371,7.2949c6.01829,5.65354 14.13386,8.93625 22.79655,8.93625c8.5715,0 16.77826,-3.2827 22.88774,-8.93625l-7.20371,-7.2949c-4.28575,3.82982 -9.84811,6.01829 -15.68403,6.01829z" data-paper-data="{&quot;glyphName&quot;:&quot;O&quot;,&quot;glyphIndex&quot;:0,&quot;firstGlyphOfWord&quot;:true,&quot;word&quot;:1}" style="animation-play-state: running;"></path><path d="M208.02373,319.25501l-14.49861,8.48032l-2.6444,-4.55931l14.58979,-8.48032zM223.61657,313.14553l-14.31623,8.29794l2.6444,4.55931l14.31623,-8.29794zM198.54036,315.69874c-1.00305,-1.91491 -1.55017,-3.92101 -1.55017,-5.9271c0,-6.38303 5.19761,-11.85421 11.85421,-11.85421c4.19457,0 8.11557,2.18847 10.21286,5.9271l8.84506,-5.10643c-4.01219,-6.93015 -11.30709,-11.03353 -19.05792,-11.03353c-12.49251,0 -22.06706,10.21286 -22.06706,21.97588c0,3.82982 1.00305,7.65964 2.91796,11.12472zM230.91147,331.38277c0,-4.10338 -1.09423,-8.02439 -3.10033,-11.67183l-8.93625,5.01524c1.18542,2.09728 1.82372,4.37694 1.82372,6.65659c0,7.2949 -6.01829,13.40437 -13.40437,13.40437c-4.92406,0 -9.20981,-2.6444 -11.58065,-6.65659l-8.75388,5.10643c4.10338,7.20371 11.85421,11.76302 20.33452,11.76302c13.03963,0 23.61723,-10.66879 23.61723,-23.61723z" data-paper-data="{&quot;glyphName&quot;:&quot;S&quot;,&quot;glyphIndex&quot;:1,&quot;word&quot;:1}" style="animation-play-state: running;"></path><path d="M274.77203,336.4892c0,3.2827 -2.6444,5.9271 -5.9271,5.9271c-3.2827,0 -5.9271,-2.6444 -5.9271,-5.9271c0,-3.2827 2.6444,-5.9271 5.9271,-5.9271c3.2827,0 5.9271,2.6444 5.9271,5.9271zM276.77813,290.44016l-5.47117,14.77217l17.78131,48.05513h11.12472zM257.1731,306.12419l-17.59894,47.14327h11.12472l17.41657,-47.14327zM263.28257,289.43712l5.56236,14.95454l5.56236,-14.95454z" data-paper-data="{&quot;glyphName&quot;:&quot;A&quot;,&quot;glyphIndex&quot;:2,&quot;word&quot;:1}" style="animation-play-state: running;"></path><path d="M321.45937,353.26746v-55.98833l-10.30404,-8.11557v64.1039zM360.57826,353.26746h10.21286v-48.69344l-10.21286,8.20676zM370.79111,289.16356l-29.17959,23.25248v12.21895l29.17959,-23.34367zM325.01564,311.23062c0,3.2827 2.73559,5.9271 6.01829,5.9271c3.2827,0 5.9271,-2.6444 5.9271,-5.9271c0,-3.2827 -2.6444,-6.01829 -5.9271,-6.01829c-3.2827,0 -6.01829,2.73559 -6.01829,6.01829z" data-paper-data="{&quot;glyphName&quot;:&quot;M&quot;,&quot;glyphIndex&quot;:3,&quot;word&quot;:1}" style="animation-play-state: running;"></path><path d="M416.93133,336.4892c0,3.2827 -2.6444,5.9271 -5.9271,5.9271c-3.2827,0 -5.9271,-2.6444 -5.9271,-5.9271c0,-3.2827 2.6444,-5.9271 5.9271,-5.9271c3.2827,0 5.9271,2.6444 5.9271,5.9271zM418.93743,290.44016l-5.47117,14.77217l17.78131,48.05513h11.12472zM399.3324,306.12419l-17.59894,47.14327h11.12472l17.41657,-47.14327zM405.44187,289.43712l5.56236,14.95454l5.56236,-14.95454z" data-paper-data="{&quot;glyphName&quot;:&quot;A&quot;,&quot;glyphIndex&quot;:4,&quot;lastGlyphOfWord&quot;:true,&quot;word&quot;:1}" style="animation-play-state: running;"></path></g><g data-paper-data="{&quot;isIcon&quot;:&quot;true&quot;,&quot;iconType&quot;:&quot;icon&quot;,&quot;rawIconId&quot;:&quot;50966&quot;,&quot;selectedEffects&quot;:{&quot;container&quot;:&quot;&quot;,&quot;transformation&quot;:&quot;&quot;,&quot;pattern&quot;:&quot;&quot;},&quot;isDetailed&quot;:false,&quot;fillRule&quot;:&quot;evenodd&quot;,&quot;bounds&quot;:{&quot;x&quot;:206.43895918044814,&quot;y&quot;:115.00000000000003,&quot;width&quot;:137.12208163910373,&quot;height&quot;:141.40008418612084},&quot;iconStyle&quot;:&quot;standalone&quot;,&quot;suitableAsStandaloneIcon&quot;:true}" fill-rule="evenodd" style="animation-play-state: running;"><g data-paper-data="{&quot;isPathIcon&quot;:true}" style="animation-play-state: running;"><path d="M321.92203,152.98402c-1.927,17.51101 -16.76901,31.12902 -34.79002,31.12902c-19.33101,0 -35.00002,-15.67001 -35.00002,-34.99902c0,-16.62701 11.59501,-30.54702 27.14202,-34.11402l-0.076,0.015c-22.34701,0.706 -40.24702,19.04601 -40.24702,41.56502c0,22.96501 18.61601,41.58102 41.58202,41.58102c22.96801,0 41.58602,-18.61601 41.58602,-41.58102c0,-1.28 -0.059,-2.546 -0.172,-3.796z" style="animation-play-state: running;"></path><path d="M249.84799,122.824l-0.003,0.001l0.002,-0.001z" style="animation-play-state: running;"></path><path d="M220.26997,169.82903c0.002,-20.71201 12.07901,-39.41802 29.57502,-47.00403c-10.33601,7.586 -16.89801,21.55301 -16.89801,36.16402c0,26.37602 21.38301,47.40403 47.76003,47.40403c26.37902,0 47.76203,-21.35001 47.76203,-47.72603c0,-6.249 -1.199,-12.19901 -3.382,-17.66801c11.45901,12.25501 18.47401,28.72402 18.47401,46.82503c0,37.86502 -30.69602,68.57604 -68.56104,68.57604c-37.86502,0 -68.56104,-30.66702 -68.56104,-68.53004c0,-11.52701 2.844,-22.32601 7.868,-31.85902l0.004,0.086c-0.249,1.851 -0.378,3.781 -0.378,5.7c0,10.50801 3.847,21.70201 10.20701,27.77202c-2.496,-6.068 -3.87,-12.75301 -3.87,-19.74001zM325.08703,140.99902c-0.009,-0.009 -0.017,-0.018 -0.025,-0.027l0.007,-0.016z" style="animation-play-state: running;"></path><path d="M316.95202,142.54502c-0.001,0.003 -0.002,0.006 -0.003,0.009c-0.001,-0.003 -0.001,-0.006 -0.002,-0.009z" style="animation-play-state: running;"></path><path d="M263.36099,161.84403c4.673,9.58001 14.50601,16.19001 25.88302,16.19001c15.89601,0 28.78202,-12.33801 28.78202,-28.23102c0,-2.71 -0.374,-4.22 -1.077,-7.249c-3.987,13.65001 -17.69801,25.56002 -33.99502,25.56002c-7.254,0 -13.99401,-2.503 -19.59301,-6.27z" style="animation-play-state: running;"></path><path d="M263.36099,161.84403c-0.058,-0.12 -0.116,-0.24 -0.173,-0.361l0.108,0.317c0.021,0.015 0.043,0.03 0.065,0.044z" style="animation-play-state: running;"></path></g></g></g></g><g fill-rule="none" font-family="none" font-weight="none" font-size="none" text-anchor="none" style="mix-blend-mode: normal; animation-play-state: running;" filter="url(#electric-electric)" fill="none" stroke="#ffffff" opacity="0.5"><g data-paper-data="{&quot;isGlobalGroup&quot;:true,&quot;bounds&quot;:{&quot;x&quot;:107.62771467291276,&quot;y&quot;:115.00000000000003,&quot;width&quot;:334.7445706541745,&quot;height&quot;:239.99999999999997}}" style="animation-play-state: running;"><g data-paper-data="{&quot;isPrimaryText&quot;:true}" fill-rule="nonzero" style="animation-play-state: running;"><path d="M156.32115,316.79298c0,3.2827 -2.6444,5.9271 -5.9271,5.9271c-3.2827,0 -5.9271,-2.6444 -5.9271,-5.9271c0,-3.2827 2.6444,-5.9271 5.9271,-5.9271c3.2827,0 5.9271,2.6444 5.9271,5.9271zM130.05952,331.56514l6.83897,-6.83897l-6.83897,-6.93015l-6.93015,6.93015zM141.27543,287.70458c-19.78741,0 -33.64771,16.41352 -33.64771,33.83008c0,8.5715 3.37389,16.59589 9.02743,22.70537l7.20371,-7.2949c-3.92101,-4.28575 -6.01829,-9.84811 -6.01829,-15.50166c0,-13.13081 10.66879,-23.52604 23.43486,-23.52604c5.9271,0 11.39828,2.18847 15.68403,6.01829l7.20371,-7.2949c-6.29185,-5.83592 -14.58979,-8.93625 -22.88774,-8.93625zM165.98689,298.46455l-7.20371,7.20371c4.01219,4.6505 5.9271,10.21286 5.9271,15.68403c0,5.74473 -2.09728,11.30709 -5.9271,15.59284l7.20371,7.2949c5.9271,-6.38303 8.93625,-14.58979 8.93625,-22.88774c0,-8.20676 -2.91796,-16.41352 -8.93625,-22.88774zM141.27543,344.78714c-5.83592,0 -11.39828,-2.27966 -15.59284,-6.01829l-7.20371,7.2949c6.01829,5.65354 14.13386,8.93625 22.79655,8.93625c8.5715,0 16.77826,-3.2827 22.88774,-8.93625l-7.20371,-7.2949c-4.28575,3.82982 -9.84811,6.01829 -15.68403,6.01829z" data-paper-data="{&quot;glyphName&quot;:&quot;O&quot;,&quot;glyphIndex&quot;:0,&quot;firstGlyphOfWord&quot;:true,&quot;word&quot;:1}" style="animation-play-state: running;"></path><path d="M208.02373,319.25501l-14.49861,8.48032l-2.6444,-4.55931l14.58979,-8.48032zM223.61657,313.14553l-14.31623,8.29794l2.6444,4.55931l14.31623,-8.29794zM198.54036,315.69874c-1.00305,-1.91491 -1.55017,-3.92101 -1.55017,-5.9271c0,-6.38303 5.19761,-11.85421 11.85421,-11.85421c4.19457,0 8.11557,2.18847 10.21286,5.9271l8.84506,-5.10643c-4.01219,-6.93015 -11.30709,-11.03353 -19.05792,-11.03353c-12.49251,0 -22.06706,10.21286 -22.06706,21.97588c0,3.82982 1.00305,7.65964 2.91796,11.12472zM230.91147,331.38277c0,-4.10338 -1.09423,-8.02439 -3.10033,-11.67183l-8.93625,5.01524c1.18542,2.09728 1.82372,4.37694 1.82372,6.65659c0,7.2949 -6.01829,13.40437 -13.40437,13.40437c-4.92406,0 -9.20981,-2.6444 -11.58065,-6.65659l-8.75388,5.10643c4.10338,7.20371 11.85421,11.76302 20.33452,11.76302c13.03963,0 23.61723,-10.66879 23.61723,-23.61723z" data-paper-data="{&quot;glyphName&quot;:&quot;S&quot;,&quot;glyphIndex&quot;:1,&quot;word&quot;:1}" style="animation-play-state: running;"></path><path d="M274.77203,336.4892c0,3.2827 -2.6444,5.9271 -5.9271,5.9271c-3.2827,0 -5.9271,-2.6444 -5.9271,-5.9271c0,-3.2827 2.6444,-5.9271 5.9271,-5.9271c3.2827,0 5.9271,2.6444 5.9271,5.9271zM276.77813,290.44016l-5.47117,14.77217l17.78131,48.05513h11.12472zM257.1731,306.12419l-17.59894,47.14327h11.12472l17.41657,-47.14327zM263.28257,289.43712l5.56236,14.95454l5.56236,-14.95454z" data-paper-data="{&quot;glyphName&quot;:&quot;A&quot;,&quot;glyphIndex&quot;:2,&quot;word&quot;:1}" style="animation-play-state: running;"></path><path d="M321.45937,353.26746v-55.98833l-10.30404,-8.11557v64.1039zM360.57826,353.26746h10.21286v-48.69344l-10.21286,8.20676zM370.79111,289.16356l-29.17959,23.25248v12.21895l29.17959,-23.34367zM325.01564,311.23062c0,3.2827 2.73559,5.9271 6.01829,5.9271c3.2827,0 5.9271,-2.6444 5.9271,-5.9271c0,-3.2827 -2.6444,-6.01829 -5.9271,-6.01829c-3.2827,0 -6.01829,2.73559 -6.01829,6.01829z" data-paper-data="{&quot;glyphName&quot;:&quot;M&quot;,&quot;glyphIndex&quot;:3,&quot;word&quot;:1}" style="animation-play-state: running;"></path><path d="M416.93133,336.4892c0,3.2827 -2.6444,5.9271 -5.9271,5.9271c-3.2827,0 -5.9271,-2.6444 -5.9271,-5.9271c0,-3.2827 2.6444,-5.9271 5.9271,-5.9271c3.2827,0 5.9271,2.6444 5.9271,5.9271zM418.93743,290.44016l-5.47117,14.77217l17.78131,48.05513h11.12472zM399.3324,306.12419l-17.59894,47.14327h11.12472l17.41657,-47.14327zM405.44187,289.43712l5.56236,14.95454l5.56236,-14.95454z" data-paper-data="{&quot;glyphName&quot;:&quot;A&quot;,&quot;glyphIndex&quot;:4,&quot;lastGlyphOfWord&quot;:true,&quot;word&quot;:1}" style="animation-play-state: running;"></path></g><g data-paper-data="{&quot;isIcon&quot;:&quot;true&quot;,&quot;iconType&quot;:&quot;icon&quot;,&quot;rawIconId&quot;:&quot;50966&quot;,&quot;selectedEffects&quot;:{&quot;container&quot;:&quot;&quot;,&quot;transformation&quot;:&quot;&quot;,&quot;pattern&quot;:&quot;&quot;},&quot;isDetailed&quot;:false,&quot;fillRule&quot;:&quot;evenodd&quot;,&quot;bounds&quot;:{&quot;x&quot;:206.43895918044814,&quot;y&quot;:115.00000000000003,&quot;width&quot;:137.12208163910373,&quot;height&quot;:141.40008418612084},&quot;iconStyle&quot;:&quot;standalone&quot;,&quot;suitableAsStandaloneIcon&quot;:true}" fill-rule="evenodd" style="animation-play-state: running;"><g data-paper-data="{&quot;isPathIcon&quot;:true}" style="animation-play-state: running;"><path d="M321.92203,152.98402c-1.927,17.51101 -16.76901,31.12902 -34.79002,31.12902c-19.33101,0 -35.00002,-15.67001 -35.00002,-34.99902c0,-16.62701 11.59501,-30.54702 27.14202,-34.11402l-0.076,0.015c-22.34701,0.706 -40.24702,19.04601 -40.24702,41.56502c0,22.96501 18.61601,41.58102 41.58202,41.58102c22.96801,0 41.58602,-18.61601 41.58602,-41.58102c0,-1.28 -0.059,-2.546 -0.172,-3.796z" style="animation-play-state: running;"></path><path d="M249.84799,122.824l-0.003,0.001l0.002,-0.001z" style="animation-play-state: running;"></path><path d="M220.26997,169.82903c0.002,-20.71201 12.07901,-39.41802 29.57502,-47.00403c-10.33601,7.586 -16.89801,21.55301 -16.89801,36.16402c0,26.37602 21.38301,47.40403 47.76003,47.40403c26.37902,0 47.76203,-21.35001 47.76203,-47.72603c0,-6.249 -1.199,-12.19901 -3.382,-17.66801c11.45901,12.25501 18.47401,28.72402 18.47401,46.82503c0,37.86502 -30.69602,68.57604 -68.56104,68.57604c-37.86502,0 -68.56104,-30.66702 -68.56104,-68.53004c0,-11.52701 2.844,-22.32601 7.868,-31.85902l0.004,0.086c-0.249,1.851 -0.378,3.781 -0.378,5.7c0,10.50801 3.847,21.70201 10.20701,27.77202c-2.496,-6.068 -3.87,-12.75301 -3.87,-19.74001zM325.08703,140.99902c-0.009,-0.009 -0.017,-0.018 -0.025,-0.027l0.007,-0.016z" style="animation-play-state: running;"></path><path d="M316.95202,142.54502c-0.001,0.003 -0.002,0.006 -0.003,0.009c-0.001,-0.003 -0.001,-0.006 -0.002,-0.009z" style="animation-play-state: running;"></path><path d="M263.36099,161.84403c4.673,9.58001 14.50601,16.19001 25.88302,16.19001c15.89601,0 28.78202,-12.33801 28.78202,-28.23102c0,-2.71 -0.374,-4.22 -1.077,-7.249c-3.987,13.65001 -17.69801,25.56002 -33.99502,25.56002c-7.254,0 -13.99401,-2.503 -19.59301,-6.27z" style="animation-play-state: running;"></path><path d="M263.36099,161.84403c-0.058,-0.12 -0.116,-0.24 -0.173,-0.361l0.108,0.317c0.021,0.015 0.043,0.03 0.065,0.044z" style="animation-play-state: running;"></path></g></g></g></g><g fill-rule="none" font-family="none" font-weight="none" font-size="none" text-anchor="none" style="mix-blend-mode: normal; animation-play-state: running;" filter="url(#electric-filter)" fill="#ffffff" stroke="none"><g data-paper-data="{&quot;isGlobalGroup&quot;:true,&quot;bounds&quot;:{&quot;x&quot;:107.62771467291276,&quot;y&quot;:115.00000000000003,&quot;width&quot;:334.7445706541745,&quot;height&quot;:239.99999999999997}}" style="animation-play-state: running;"><g data-paper-data="{&quot;isPrimaryText&quot;:true}" fill-rule="nonzero" style="animation-play-state: running;"><path d="M156.32115,316.79298c0,3.2827 -2.6444,5.9271 -5.9271,5.9271c-3.2827,0 -5.9271,-2.6444 -5.9271,-5.9271c0,-3.2827 2.6444,-5.9271 5.9271,-5.9271c3.2827,0 5.9271,2.6444 5.9271,5.9271zM130.05952,331.56514l6.83897,-6.83897l-6.83897,-6.93015l-6.93015,6.93015zM141.27543,287.70458c-19.78741,0 -33.64771,16.41352 -33.64771,33.83008c0,8.5715 3.37389,16.59589 9.02743,22.70537l7.20371,-7.2949c-3.92101,-4.28575 -6.01829,-9.84811 -6.01829,-15.50166c0,-13.13081 10.66879,-23.52604 23.43486,-23.52604c5.9271,0 11.39828,2.18847 15.68403,6.01829l7.20371,-7.2949c-6.29185,-5.83592 -14.58979,-8.93625 -22.88774,-8.93625zM165.98689,298.46455l-7.20371,7.20371c4.01219,4.6505 5.9271,10.21286 5.9271,15.68403c0,5.74473 -2.09728,11.30709 -5.9271,15.59284l7.20371,7.2949c5.9271,-6.38303 8.93625,-14.58979 8.93625,-22.88774c0,-8.20676 -2.91796,-16.41352 -8.93625,-22.88774zM141.27543,344.78714c-5.83592,0 -11.39828,-2.27966 -15.59284,-6.01829l-7.20371,7.2949c6.01829,5.65354 14.13386,8.93625 22.79655,8.93625c8.5715,0 16.77826,-3.2827 22.88774,-8.93625l-7.20371,-7.2949c-4.28575,3.82982 -9.84811,6.01829 -15.68403,6.01829z" data-paper-data="{&quot;glyphName&quot;:&quot;O&quot;,&quot;glyphIndex&quot;:0,&quot;firstGlyphOfWord&quot;:true,&quot;word&quot;:1}" style="animation-play-state: running;"></path><path d="M208.02373,319.25501l-14.49861,8.48032l-2.6444,-4.55931l14.58979,-8.48032zM223.61657,313.14553l-14.31623,8.29794l2.6444,4.55931l14.31623,-8.29794zM198.54036,315.69874c-1.00305,-1.91491 -1.55017,-3.92101 -1.55017,-5.9271c0,-6.38303 5.19761,-11.85421 11.85421,-11.85421c4.19457,0 8.11557,2.18847 10.21286,5.9271l8.84506,-5.10643c-4.01219,-6.93015 -11.30709,-11.03353 -19.05792,-11.03353c-12.49251,0 -22.06706,10.21286 -22.06706,21.97588c0,3.82982 1.00305,7.65964 2.91796,11.12472zM230.91147,331.38277c0,-4.10338 -1.09423,-8.02439 -3.10033,-11.67183l-8.93625,5.01524c1.18542,2.09728 1.82372,4.37694 1.82372,6.65659c0,7.2949 -6.01829,13.40437 -13.40437,13.40437c-4.92406,0 -9.20981,-2.6444 -11.58065,-6.65659l-8.75388,5.10643c4.10338,7.20371 11.85421,11.76302 20.33452,11.76302c13.03963,0 23.61723,-10.66879 23.61723,-23.61723z" data-paper-data="{&quot;glyphName&quot;:&quot;S&quot;,&quot;glyphIndex&quot;:1,&quot;word&quot;:1}" style="animation-play-state: running;"></path><path d="M274.77203,336.4892c0,3.2827 -2.6444,5.9271 -5.9271,5.9271c-3.2827,0 -5.9271,-2.6444 -5.9271,-5.9271c0,-3.2827 2.6444,-5.9271 5.9271,-5.9271c3.2827,0 5.9271,2.6444 5.9271,5.9271zM276.77813,290.44016l-5.47117,14.77217l17.78131,48.05513h11.12472zM257.1731,306.12419l-17.59894,47.14327h11.12472l17.41657,-47.14327zM263.28257,289.43712l5.56236,14.95454l5.56236,-14.95454z" data-paper-data="{&quot;glyphName&quot;:&quot;A&quot;,&quot;glyphIndex&quot;:2,&quot;word&quot;:1}" style="animation-play-state: running;"></path><path d="M321.45937,353.26746v-55.98833l-10.30404,-8.11557v64.1039zM360.57826,353.26746h10.21286v-48.69344l-10.21286,8.20676zM370.79111,289.16356l-29.17959,23.25248v12.21895l29.17959,-23.34367zM325.01564,311.23062c0,3.2827 2.73559,5.9271 6.01829,5.9271c3.2827,0 5.9271,-2.6444 5.9271,-5.9271c0,-3.2827 -2.6444,-6.01829 -5.9271,-6.01829c-3.2827,0 -6.01829,2.73559 -6.01829,6.01829z" data-paper-data="{&quot;glyphName&quot;:&quot;M&quot;,&quot;glyphIndex&quot;:3,&quot;word&quot;:1}" style="animation-play-state: running;"></path><path d="M416.93133,336.4892c0,3.2827 -2.6444,5.9271 -5.9271,5.9271c-3.2827,0 -5.9271,-2.6444 -5.9271,-5.9271c0,-3.2827 2.6444,-5.9271 5.9271,-5.9271c3.2827,0 5.9271,2.6444 5.9271,5.9271zM418.93743,290.44016l-5.47117,14.77217l17.78131,48.05513h11.12472zM399.3324,306.12419l-17.59894,47.14327h11.12472l17.41657,-47.14327zM405.44187,289.43712l5.56236,14.95454l5.56236,-14.95454z" data-paper-data="{&quot;glyphName&quot;:&quot;A&quot;,&quot;glyphIndex&quot;:4,&quot;lastGlyphOfWord&quot;:true,&quot;word&quot;:1}" style="animation-play-state: running;"></path></g><g data-paper-data="{&quot;isIcon&quot;:&quot;true&quot;,&quot;iconType&quot;:&quot;icon&quot;,&quot;rawIconId&quot;:&quot;50966&quot;,&quot;selectedEffects&quot;:{&quot;container&quot;:&quot;&quot;,&quot;transformation&quot;:&quot;&quot;,&quot;pattern&quot;:&quot;&quot;},&quot;isDetailed&quot;:false,&quot;fillRule&quot;:&quot;evenodd&quot;,&quot;bounds&quot;:{&quot;x&quot;:206.43895918044814,&quot;y&quot;:115.00000000000003,&quot;width&quot;:137.12208163910373,&quot;height&quot;:141.40008418612084},&quot;iconStyle&quot;:&quot;standalone&quot;,&quot;suitableAsStandaloneIcon&quot;:true}" fill-rule="evenodd" style="animation-play-state: running;"><g data-paper-data="{&quot;isPathIcon&quot;:true}" style="animation-play-state: running;"><path d="M321.92203,152.98402c-1.927,17.51101 -16.76901,31.12902 -34.79002,31.12902c-19.33101,0 -35.00002,-15.67001 -35.00002,-34.99902c0,-16.62701 11.59501,-30.54702 27.14202,-34.11402l-0.076,0.015c-22.34701,0.706 -40.24702,19.04601 -40.24702,41.56502c0,22.96501 18.61601,41.58102 41.58202,41.58102c22.96801,0 41.58602,-18.61601 41.58602,-41.58102c0,-1.28 -0.059,-2.546 -0.172,-3.796z" style="animation-play-state: running;"></path><path d="M249.84799,122.824l-0.003,0.001l0.002,-0.001z" style="animation-play-state: running;"></path><path d="M220.26997,169.82903c0.002,-20.71201 12.07901,-39.41802 29.57502,-47.00403c-10.33601,7.586 -16.89801,21.55301 -16.89801,36.16402c0,26.37602 21.38301,47.40403 47.76003,47.40403c26.37902,0 47.76203,-21.35001 47.76203,-47.72603c0,-6.249 -1.199,-12.19901 -3.382,-17.66801c11.45901,12.25501 18.47401,28.72402 18.47401,46.82503c0,37.86502 -30.69602,68.57604 -68.56104,68.57604c-37.86502,0 -68.56104,-30.66702 -68.56104,-68.53004c0,-11.52701 2.844,-22.32601 7.868,-31.85902l0.004,0.086c-0.249,1.851 -0.378,3.781 -0.378,5.7c0,10.50801 3.847,21.70201 10.20701,27.77202c-2.496,-6.068 -3.87,-12.75301 -3.87,-19.74001zM325.08703,140.99902c-0.009,-0.009 -0.017,-0.018 -0.025,-0.027l0.007,-0.016z" style="animation-play-state: running;"></path><path d="M316.95202,142.54502c-0.001,0.003 -0.002,0.006 -0.003,0.009c-0.001,-0.003 -0.001,-0.006 -0.002,-0.009z" style="animation-play-state: running;"></path><path d="M263.36099,161.84403c4.673,9.58001 14.50601,16.19001 25.88302,16.19001c15.89601,0 28.78202,-12.33801 28.78202,-28.23102c0,-2.71 -0.374,-4.22 -1.077,-7.249c-3.987,13.65001 -17.69801,25.56002 -33.99502,25.56002c-7.254,0 -13.99401,-2.503 -19.59301,-6.27z" style="animation-play-state: running;"></path><path d="M263.36099,161.84403c-0.058,-0.12 -0.116,-0.24 -0.173,-0.361l0.108,0.317c0.021,0.015 0.043,0.03 0.065,0.044z" style="animation-play-state: running;"></path></g></g></g></g></svg>